<svg width="24" height="24" viewBox="0 0 24 24" fill="none" xmlns="http://www.w3.org/2000/svg">
<path d="M19.7342 10.9821L5.54031 4.5949C4.45231 4.10532 3.90841 3.86054 3.58931 3.96373C3.31311 4.05308 3.09971 4.27433 3.02031 4.55357C2.92861 4.87608 3.19271 5.41094 3.72091 6.48065L6.09841 11.295C6.22681 11.5549 6.29091 11.6849 6.31621 11.821C6.33861 11.9416 6.33861 12.0653 6.31621 12.1859C6.29091 12.3221 6.22681 12.452 6.09841 12.7119L3.7209 17.5263C3.1927 18.596 2.9286 19.1309 3.0203 19.4534C3.0997 19.7327 3.31311 19.9539 3.58931 20.0432C3.90841 20.1464 4.45231 19.9017 5.54031 19.4121L19.7342 13.0248C20.4542 12.7008 20.8143 12.5388 20.9255 12.3137C21.0222 12.1182 21.0222 11.8888 20.9255 11.6932C20.8143 11.4682 20.4542 11.3061 19.7342 10.9821Z" stroke="#0E0B10" stroke-width="2" stroke-linecap="round" stroke-linejoin="round"/>
</svg>
