<svg width="16" height="16" viewBox="0 0 16 16" fill="none" xmlns="http://www.w3.org/2000/svg">
<path d="M11.3857 15.3749C11.7579 15.6865 12.3137 15.363 12.232 14.8825L11.619 11.2726C11.5717 10.9938 11.752 10.7274 12.0267 10.6699L15.5846 9.92625C16.0583 9.82724 16.154 9.18763 15.7303 8.9523L12.5479 7.18465C12.3022 7.04815 12.2078 6.73996 12.3346 6.48763L13.9761 3.22028C14.1946 2.78529 13.7581 2.31113 13.3114 2.49826L9.95604 3.90388C9.69692 4.01243 9.39906 3.89461 9.28236 3.63739L7.77129 0.306757C7.57012 -0.136654 6.93016 -0.0883168 6.79681 0.380362L5.79513 3.90079C5.71778 4.17266 5.44066 4.33392 5.16838 4.26551L1.64267 3.37962C1.17329 3.26169 0.811777 3.79612 1.09219 4.19342L3.19845 7.17771C3.36111 7.40817 3.31342 7.72708 3.09059 7.89898L0.205165 10.1249C-0.178975 10.4213 0.0101846 11.0394 0.493204 11.0661L4.12135 11.267C4.40154 11.2826 4.61918 11.519 4.61359 11.8018L4.54124 15.4634C4.53161 15.9508 5.129 16.1871 5.45091 15.8232L7.86887 13.0894C8.05559 12.8783 8.37468 12.8542 8.59055 13.0349L11.3857 15.3749Z" fill="#0E0B10"/>
<path d="M6.79657 0.37992C6.93003 -0.0886163 7.5694 -0.136372 7.77055 0.307001L9.28231 3.63784C9.39917 3.89459 9.69661 4.01183 9.9555 3.90347L13.3111 2.49848C13.7576 2.3114 14.1945 2.78496 13.9764 3.21986L12.3345 6.48819C12.2081 6.74043 12.3023 7.04823 12.5479 7.18465L15.7304 8.95181C16.154 9.18713 16.0581 9.82672 15.5845 9.9258L12.0272 10.6706C11.7526 10.728 11.5713 10.9936 11.6183 11.2722L12.2316 14.883C12.3079 15.3336 11.8242 15.6458 11.4568 15.426L11.3852 15.3752L8.59088 13.0353C8.37502 12.8546 8.05494 12.8788 7.86821 13.09L5.45018 15.8231C5.1283 16.187 4.53182 15.9511 4.5413 15.4637L4.61292 11.8022C4.61851 11.5194 4.40091 11.2825 4.12072 11.267L0.493024 11.0665C0.00999089 11.0397 -0.178986 10.4213 0.205165 10.1249L3.09075 7.89839C3.31303 7.72637 3.36002 7.40726 3.19752 7.17701L1.092 4.19385C0.81158 3.79653 1.1734 3.26207 1.64279 3.38002L5.16762 4.26546C5.40576 4.3253 5.64751 4.2091 5.75618 3.99722L5.79513 3.90079L6.79657 0.37992ZM6.82131 4.19254C6.58807 5.01226 5.74588 5.50959 4.9085 5.29935L2.80428 4.77069L4.06994 6.56241C4.56076 7.25797 4.41874 8.22116 3.7418 8.74347L2.00739 10.0808L4.17931 10.2019C5.04045 10.2495 5.69614 10.9735 5.67935 11.823L5.63638 14.0028L7.07001 12.3829L7.18069 12.2683C7.72068 11.768 8.53872 11.706 9.14819 12.1212L9.27449 12.2175L10.9334 13.6056L10.5675 11.4519C10.4253 10.6147 10.9656 9.80249 11.8084 9.62631L13.9413 9.17838L12.0298 8.11715C11.2805 7.70094 10.9999 6.76861 11.3813 6.00901L12.3644 4.05061L10.3683 4.88788C9.57226 5.22134 8.66392 4.85585 8.31093 4.07796L7.41507 2.10393L6.82131 4.19254Z" fill="#0E0B10"/>
</svg>
