<svg width="166" height="166" viewBox="0 0 166 166" fill="none" xmlns="http://www.w3.org/2000/svg">
<path d="M52.7602 65.8868C39.2939 47.5066 7.55174 39.5878 4.16411 56.708C1.54897 69.9241 31.1212 76.0437 52.7602 65.8868ZM52.7602 65.8868C56.8449 71.4621 59.2481 77.9999 58.6684 85.0934C58.4268 88.0495 57.571 91.0038 56.2476 93.8806M52.7602 65.8868C55.5108 64.5958 58.1331 63.0417 60.5449 61.2059C62.3064 59.865 63.9622 58.3654 65.5084 56.7417M56.2476 93.8806C47.2096 113.528 16.3603 129.558 10.3787 117.836C4.24345 105.814 32.3313 91.4553 56.2476 93.8806ZM56.2476 93.8806C60.4064 94.3023 64.4389 95.2316 68.1435 96.7689C70.855 97.894 73.4138 99.2547 75.8118 100.806M75.8118 100.806C55.2351 128.921 66.362 170.259 89.8081 160.556C108.137 152.97 100.502 116.779 75.8118 100.806ZM75.8118 100.806C79.3596 95.9583 83.8499 91.5038 89.3821 87.7716C92.7382 85.5075 96.1588 83.7498 99.5965 82.4371M99.5965 82.4371C134.69 69.0363 171.562 102.015 159.754 116.085C147.282 130.948 107.52 109.374 99.5965 82.4371ZM99.5965 82.4371C99.015 80.4602 98.6049 78.4544 98.3897 76.4321C98.0621 73.3534 98.1774 70.217 98.6575 67.0949M98.6575 67.0949C123.72 61.8311 152.154 40.4678 138.286 29.8555C126.576 20.8951 102.273 43.5864 98.6575 67.0949ZM98.6575 67.0949C91.3594 68.6277 84.3471 68.7954 78.7484 66.9349C73.3149 65.1293 68.9095 61.4529 65.5084 56.7417M65.5084 56.7417C52.1641 38.2574 54.2781 3.8444 70.3995 4.00053C86.4633 4.1561 82.9892 38.3839 65.5084 56.7417Z" stroke="#CC32FF" stroke-width="8"/>
</svg>
