<svg width="149" height="129" viewBox="0 0 149 129" fill="none" xmlns="http://www.w3.org/2000/svg">
<path d="M53.6623 19.8043C41.9304 36.6457 38.991 61.3205 50.2696 64.3747C68.425 69.2909 70.1262 36.5852 53.6623 19.8043ZM53.6623 19.8043C61.257 8.90183 72.5363 1.28212 86.0283 4.9356C101.432 9.10675 109.614 21.6067 112.518 35.7576M53.6623 19.8043C48.5436 14.587 41.6691 10.9091 32.9872 10.3796C-6.042 7.99954 -12.0444 103.283 55.1296 121.473C122.303 139.663 171.233 54.6868 129.643 36.5531C124.43 34.2801 118.503 34.2401 112.518 35.7576M112.518 35.7576C87.9143 41.9959 62.3243 74.5548 81.2828 86.5163C102.588 99.9586 118.41 64.4616 112.518 35.7576Z" stroke="#C8FF32" stroke-width="8"/>
</svg>
