<svg width="150" height="141" viewBox="0 0 150 141" fill="none" xmlns="http://www.w3.org/2000/svg">
<path d="M64.2502 4.1374C34.6885 6.98851 61.2337 51.4958 61.2337 51.4958C61.2337 51.4958 2.23096 9.01969 4.0408 69.6823C5.85064 130.345 59.5445 83.4749 59.5445 83.4749C59.5445 83.4749 13.3316 126.195 59.5445 135.96C105.757 145.724 84.7624 83.4749 84.7624 83.4749C84.7624 83.4749 112.635 135.96 139.663 99.3424C166.691 62.7251 98.5176 63.7015 98.5176 63.7015C98.5176 63.7015 165.61 61.7486 136.164 21.9578C106.717 -17.833 84.7624 43.44 84.7624 43.44C84.7624 43.44 93.8119 1.28629 64.2502 4.1374Z" stroke="#FF4332" stroke-width="8"/>
</svg>
