<svg width="172" height="189" viewBox="0 0 172 189" fill="none" xmlns="http://www.w3.org/2000/svg">
<path d="M64.085 128.152C43.6554 119.776 20.6788 162.865 9.28169 146.209C-4.47837 126.099 54.3856 128.038 55.156 103.703C55.9811 77.6414 -6.35612 80.8779 5.50282 58.8801C17.1906 37.1999 45.5446 88.4579 66.5177 75.4334C90.2095 60.7207 41.7547 9.85933 69.1151 4.34695C96.9008 -1.25113 67.7442 62.4188 94.3767 72.0316C120.02 81.2873 139.307 19.13 156.535 40.1719C171.76 58.7688 105.856 70.8311 109.111 100.566C112.294 129.643 180.01 123.579 166.129 149.383C152.201 175.273 117.415 110.617 93.7302 128.133C75.0824 141.923 105.57 181.905 82.5398 184.858C58.0257 188.002 86.9238 137.517 64.085 128.152Z" stroke="#FF9F32" stroke-width="8"/>
</svg>
